<svg xmlns="http://www.w3.org/2000/svg" viewBox="0 0 48 48">
  <path fill="#4285F4" d="M24 9.5c3.54 0 6.71 1.22 9.21 3.6l6.85-6.85C35.9 2.38 30.47 0 24 0 14.62 0 6.51 5.38 2.92 13.22l7.45 5.77C12.46 13.34 17.48 9.5 24 9.5z"/>
  <path fill="#34A853" d="M46.98 24.55c0-1.57-.15-3.09-.38-4.55H24v9.02h12.94c-.58 2.96-2.26 5.48-4.78 7.18l7.73 6c4.51-4.18 7.09-10.36 7.09-17.65z"/>
  <path fill="#FBBC05" d="M10.53 28.59c-.48-1.45-.76-2.99-.76-4.59s.28-3.14.76-4.59l-7.45-5.77a23.954 23.954 0 0 0 0 20.72l7.45-5.77z"/>
  <path fill="#EA4335" d="M24 48c6.48 0 11.93-2.13 15.89-5.81l-7.73-6c-2.15 1.45-4.92 2.3-8.16 2.3-6.52 0-12.04-4.33-14.05-10.2l-7.68 5.95C6.51 42.62 14.62 48 24 48z"/>
</svg>
